<svg width="600" height="120" viewBox="0 0 600 120" fill="none" xmlns="http://www.w3.org/2000/svg">
  <path d="M1 100C120.046 80.0246 142.384 120.069 180.508 105.423C218.631 90.7783 242.662 118.261 281.954 92.2858C321.246 66.3104 308.969 50.9803 394.631 42.0345C480.292 33.0887 496.138 20.8966 543.092 2.3596C576.655 -11.6699 611.349 -15.3925 617 1" 
        stroke="#AC1CAE" stroke-opacity="0.2" stroke-linecap="round"/>
  <path d="M617 21.383C533.398 53.0166 510.879 21.34805 451.358 35.0295C391.836 48.7109 366.723 8.46585 315.942 47.0994C265.161 85.7329 288.385 99.6851 189.972 110.872C91.5592 121.0608 85.262 105.9429 57 119" 
        stroke="#AC1CAE" stroke-opacity="0.2" stroke-linecap="round"/>
</svg>
